#!OML:ASF F:\VICON\USERDATA\INSTALL\rory3\rory3.ASF
:FULLY-SPECIFIED
:DEGREES
328
root 0.61632 17.6899 30.4971 -0.334601 -5.31647 -7.4879
lowerback 9.18738 1.54651 6.67981
upperback 0.745233 2.8456 2.41073
thorax -4.17772 1.30575 -1.5906
lowerneck -14.586 -2.36898 -1.96264
upperneck 18.3409 -2.97178 0.800104
head 8.13304 -1.46502 0.257074
rclavicle 5.55106e-014 3.52843e-014
rhumerus -21.8645 -5.50879 -83.6862
rradius 33.1663
rwrist -2.76663
rhand -18.1004 23.8031
rfingers 7.12502
rthumb 8.17342 -6.01878
lclavicle 5.55106e-014 3.52843e-014
lhumerus -36.5827 0.0876715 84.6161
lradius 27.2591
lwrist 4.32513
lhand -30.2027 22.8947
lfingers 7.12502
lthumb -3.51321 52.8455
rfemur 3.73211 8.52334 35.8716
rtibia 26.6096
rfoot -21.3275 -8.86898
rtoes 7.28094
lfemur -29.1294 -2.53634 -9.10807
ltibia 23.4412
lfoot -4.02436 4.19245
ltoes -8.69975
329
root 0.622079 17.661 30.697 -0.169805 -5.5541 -7.54879
lowerback 9.10915 1.64337 6.68994
upperback 0.688459 2.9716 2.41023
thorax -4.18364 1.3666 -1.60963
lowerneck -14.9698 -2.35115 -2.05634
upperneck 18.7452 -2.95743 0.969902
head 8.34165 -1.44519 0.324257
rclavicle -8.42971e-015 1.22253e-014
rhumerus -21.6706 -5.5133 -83.6944
rradius 33.2728
rwrist -2.61432
rhand -18.1601 23.9474
rfingers 7.12502
rthumb 8.1158 -5.87671
lclavicle -8.42971e-015 1.22253e-014
lhumerus -36.9297 0.351542 84.5896
lradius 26.709
lwrist 4.69714
lhand -30.9048 21.1564
lfingers 7.12502
lthumb -4.19119 51.0949
rfemur 4.5253 8.47505 35.8715
rtibia 26.1232
rfoot -21.5493 -8.7184
rtoes 6.56322
lfemur -28.8273 -3.99309 -8.31454
ltibia 20.1344
lfoot -1.38267 5.5453
ltoes -15.8899
330
root 0.634783 17.6515 30.9034 0.0151178 -5.69642 -7.28406
lowerback 8.80535 1.71198 6.51003
upperback 0.668139 3.0143 2.30358
thorax -4.03462 1.39476 -1.61416
lowerneck -15.2943 -2.3816 -2.11799
upperneck 19.072 -2.98623 0.991737
head 8.51236 -1.45889 0.33309
rclavicle -1.84621e-014 -1.56046e-014
rhumerus -21.4022 -5.34286 -83.7462
rradius 33.2857
rwrist -2.67112
rhand -18.2452 23.9007
rfingers 7.12502
rthumb 8.03366 -5.92665
lclavicle -1.84621e-014 -1.56046e-014
lhumerus -37.2109 0.674113 84.476
lradius 26.389
lwrist 4.17155
lhand -30.4411 22.7863
lfingers 7.12502
lthumb -3.7434 52.7332
rfemur 5.30393 8.126 35.3956
rtibia 25.719
rfoot -21.8944 -8.28585
rtoes 6.0602
lfemur -28.2775 -5.00345 -8.14467
ltibia 16.979
lfoot -4.08475 7.14345
ltoes -8.74937
331
root 0.64425 17.6321 31.1053 0.139704 -5.88351 -7.31164
lowerback 8.70941 1.81179 6.5741
upperback 0.543718 3.15052 2.26341
thorax -4.09564 1.45655 -1.70539
lowerneck -15.0761 -2.4247 -2.10106
upperneck 19.1311 -3.05573 0.992195
head 8.49384 -1.49146 0.324493
rclavicle -2.92897e-014 -1.22253e-014
rhumerus -21.3369 -5.44485 -83.7298
rradius 33.2603
rwrist -2.57727
rhand -18.1706 23.7094
rfingers 7.12502
rthumb 8.10565 -6.11517
lclavicle -2.92897e-014 -1.22253e-014
lhumerus -37.6238 1.25389 84.099
lradius 26.0833
lwrist 2.4844
lhand -28.9379 26.1389
lfingers 7.12502
lthumb -2.29175 56.1063
rfemur 6.11052 8.03558 35.3323
rtibia 25.5033
rfoot -21.9806 -8.13576
rtoes 4.07196
lfemur -27.6931 -5.80209 -7.66355
ltibia 13.851
lfoot -3.89578 8.37054
ltoes -8.99885
332
root 0.648854 17.6095 31.3037 0.267605 -6.10315 -7.36038
lowerback 8.55602 1.9149 6.61084
upperback 0.573822 3.2739 2.22813
thorax -3.96465 1.52144 -1.76862
lowerneck -14.8946 -2.4243 -2.06183
upperneck 18.8365 -3.06134 0.977199
head 8.36074 -1.49414 0.315961
rclavicle -1.83006e-014 4.72114e-015
rhumerus -20.9791 -5.61085 -83.769
rradius 33.2632
rwrist -2.37995
rhand -18.2182 23.5026
rfingers 7.12502
rthumb 8.05975 -6.32368
lclavicle -1.83006e-014 4.72114e-015
lhumerus -37.7399 1.37147 84.065
lradius 25.4177
lwrist 3.35973
lhand -29.0354 24.2653
lfingers 7.12502
lthumb -2.38591 54.2317
rfemur 6.83698 8.14988 35.3371
rtibia 25.3586
rfoot -22.0684 -7.8478
rtoes 1.4623
lfemur -27.2332 -6.809 -7.0274
ltibia 11.2382
lfoot -4.92433 10.0242
ltoes -5.5169
333
root 0.659256 17.5832 31.4996 0.484659 -6.30194 -7.22986
lowerback 8.33852 1.99613 6.44397
upperback 0.589617 3.34484 2.19808
thorax -3.82823 1.56404 -1.70487
lowerneck -14.6031 -2.38785 -2.05644
upperneck 18.3693 -3.00429 0.938132
head 8.1499 -1.47283 0.314377
rclavicle -1.13742e-014 3.08116e-015
rhumerus -20.5872 -5.63571 -83.7511
rradius 33.2762
rwrist -2.33328
rhand -18.0191 23.3419
rfingers 7.12502
rthumb 8.25187 -6.47692
lclavicle -1.13742e-014 3.08116e-015
lhumerus -37.817 1.93547 83.889
lradius 24.9098
lwrist 3.25707
lhand -27.8699 25.8091
lfingers 7.12502
lthumb -1.26023 55.7851
rfemur 7.2549 8.17847 35.077
rtibia 25.4239
rfoot -22.071 -7.60709
rtoes -0.896534
lfemur -26.6737 -5.94756 -7.56109
ltibia 8.85142
lfoot -7.18965 9.52072
ltoes -0.154222
334
root 0.677431 17.5517 31.7001 0.563824 -6.40523 -7.27374
lowerback 8.4068 1.99988 6.55295
upperback 0.498472 3.37104 2.19062
thorax -3.95343 1.56931 -1.78103
lowerneck -14.5716 -2.37128 -1.96923
upperneck 18.4913 -2.98017 0.823416
head 8.18143 -1.46699 0.264335
rclavicle 8.29926e-015 -1.1281e-014
rhumerus -20.4141 -5.70937 -83.7705
rradius 33.143
rwrist -2.3332
rhand -18.221 23.9212
rfingers 7.12502
rthumb 8.05706 -5.9052
lclavicle 8.29926e-015 -1.1281e-014
lhumerus -38.2011 2.61265 83.5406
lradius 24.5933
lwrist 1.40186
lhand -25.7088 31.2623
lfingers 7.12502
lthumb 0.827002 61.2404
rfemur 7.72204 7.95003 34.9181
rtibia 25.6607
rfoot -22.3203 -7.0916
rtoes -1.41513
lfemur -26.0791 -5.18616 -7.88305
ltibia 6.9973
lfoot -6.34781 8.86688
ltoes -4.64034
335
root 0.695511 17.523 31.8959 0.611462 -6.33558 -7.21538
lowerback 8.55696 1.967 6.59057
upperback 0.393636 3.34846 2.14253
thorax -4.14424 1.54886 -1.85872
lowerneck -14.8006 -2.41492 -1.99826
upperneck 18.8787 -3.02616 0.790055
head 8.35336 -1.49275 0.247888
rclavicle -2.37983e-014 9.93923e-016
rhumerus -20.245 -5.70524 -83.7957
rradius 32.8807
rwrist -2.34788
rhand -18.4136 24.539
rfingers 7.12502
rthumb 7.8712 -5.29451
lclavicle -2.37983e-014 9.93923e-016
lhumerus -38.5117 3.1413 83.2619
lradius 23.3986
lwrist 0.28622
lhand -28.4478 27.4357
lfingers 7.12502
lthumb -1.81838 57.4077
rfemur 8.13579 7.73707 34.6848
rtibia 26.0152
rfoot -22.6604 -6.49559
rtoes -1.11662
lfemur -25.9225 -4.59652 -8.29793
ltibia 6.33348
lfoot -6.66157 8.28638
ltoes -2.4197
336
root 0.71252 17.5008 32.0967 0.696837 -6.19541 -7.15284
lowerback 8.49006 1.94592 6.6253
upperback 0.363196 3.31753 2.09088
thorax -4.13596 1.53226 -1.92597
lowerneck -15.0317 -2.4688 -1.98511
upperneck 19.1191 -3.09262 0.748617
head 8.47626 -1.52606 0.219908
rclavicle -6.64065e-015 4.90998e-014
rhumerus -20.0784 -5.96617 -83.7422
rradius 32.7986
rwrist -2.18309
rhand -18.4239 24.6122
rfingers 7.12502
rthumb 7.86123 -5.22166
lclavicle -6.64065e-015 4.90998e-014
lhumerus -38.8531 3.15691 83.2799
lradius 22.5447
lwrist -0.0516432
lhand -32.3966 17.7322
lfingers 7.12502
lthumb -5.63163 47.6373
rfemur 8.54247 7.57078 34.4886
rtibia 26.4111
rfoot -22.7321 -6.21621
rtoes -2.41864
lfemur -26.4235 -4.10019 -8.77392
ltibia 7.27536
lfoot -6.78401 7.37636
ltoes -1.62987
337
root 0.727721 17.4793 32.3029 0.616945 -6.08091 -7.05088
lowerback 8.51186 1.95045 6.63145
upperback 0.418263 3.31951 2.01778
thorax -4.08545 1.53523 -2.00516
lowerneck -15.0874 -2.52681 -1.87386
upperneck 19.1641 -3.16836 0.607531
head 8.49821 -1.56801 0.144362
rclavicle 9.28387e-015 -1.10822e-014
rhumerus -19.9787 -6.29098 -83.7002
rradius 32.924
rwrist -2.06864
rhand -18.274 24.1113
rfingers 7.12502
rthumb 8.00592 -5.71708
lclavicle 9.28387e-015 -1.10822e-014
lhumerus -39.0108 2.89284 83.4966
lradius 21.8385
lwrist 1.75803
lhand -33.6062 9.80511
lfingers 7.12502
lthumb -6.79943 39.6759
rfemur 9.10493 7.40672 34.2907
rtibia 26.9046
rfoot -22.7275 -6.05373
rtoes -4.30494
lfemur -27.0977 -3.62278 -9.32492
ltibia 9.20815
lfoot -5.10989 6.51776
ltoes -3.76091
